<svg xmlns="http://www.w3.org/2000/svg" viewBox="0 0 278.5 100"><path d="M33.63 100a31.16 31.16 0 0 1-13.44-2.9 33.34 33.34 0 0 1-10.61-7.84 35.94 35.94 0 0 1-7-11.62A40.42 40.42 0 0 1 0 63.38a41.49 41.49 0 0 1 2.55-14.26A36.39 36.39 0 0 1 9.31 37.5a32.69 32.69 0 0 1 10.2-7.84 28.53 28.53 0 0 1 12.77-2.9 27.21 27.21 0 0 1 14.73 4A28 28 0 0 1 57 41.35V28.78h14.88v69.87H57.15V86.08a28.06 28.06 0 0 1-9.53 10.2 25.61 25.61 0 0 1-14 3.72m23.53-45A26.29 26.29 0 0 0 49 43.78a19.24 19.24 0 0 0-12.23-4.32 18.16 18.16 0 0 0-8.65 2.09A21.94 21.94 0 0 0 21.41 47a25.37 25.37 0 0 0-4.33 7.77 26.28 26.28 0 0 0-1.55 8.85 26 26 0 0 0 1.62 9.19 22.87 22.87 0 0 0 4.53 7.5 21.86 21.86 0 0 0 6.89 5.06 19.91 19.91 0 0 0 8.71 1.9 19 19 0 0 0 12-3.92 26.66 26.66 0 0 0 7.91-10z" fill="#fff"/><path d="M125.86 40.81a33.2 33.2 0 0 0-15.33 4 21 21 0 0 0-9.53 10.6v43.24H86.13V28h13.79v15.78a32.36 32.36 0 0 1 9.53-11.69 23.1 23.1 0 0 1 12.63-4.79h2.23a8 8 0 0 1 1.55.13z" fill="#fff"/><path d="M166.2 100a37.58 37.58 0 0 1-15-2.91 34.79 34.79 0 0 1-11.55-7.9 35.5 35.5 0 0 1-7.43-11.62 37.63 37.63 0 0 1-2.64-14.06 38.13 38.13 0 0 1 2.64-14.12 36 36 0 0 1 7.43-11.75 34.4 34.4 0 0 1 11.55-8 38.09 38.09 0 0 1 15.14-2.9 36.41 36.41 0 0 1 14.93 3 35.62 35.62 0 0 1 11.42 7.91 33.91 33.91 0 0 1 7.23 11.48 38.09 38.09 0 0 1 2.5 13.72c0 1.08 0 2.09-.14 3s-.18 1.73-.27 2.36h-56.62a24.31 24.31 0 0 0 2.23 8.52 22.47 22.47 0 0 0 4.73 6.55 20.53 20.53 0 0 0 6.65 4.29 20.76 20.76 0 0 0 7.77 1.48 23.46 23.46 0 0 0 5.88-.74 20.69 20.69 0 0 0 5.35-2.16 19.07 19.07 0 0 0 4.32-3.45 16.35 16.35 0 0 0 3-4.46L198 81.89a29.44 29.44 0 0 1-12.1 13 37.45 37.45 0 0 1-19.7 5.11m21.49-42a23.67 23.67 0 0 0-2.23-8.24 21.39 21.39 0 0 0-4.66-6.42 20.72 20.72 0 0 0-6.62-4.12 21.71 21.71 0 0 0-8-1.49 21.21 21.21 0 0 0-14.46 5.61 20.39 20.39 0 0 0-4.59 6.42A24.74 24.74 0 0 0 145 58z" fill="#fff"/><path d="M210.05 0a14.87 14.87 0 0 1 14.87 14.87v63.37a8.76 8.76 0 0 0 2 6.15 7.26 7.26 0 0 0 5.67 2.23 13.25 13.25 0 0 0 3.45-.54c1.3-.36 2.54-.76 3.71-1.21L242 96.49a34.75 34.75 0 0 1-7.76 2.36 41.36 41.36 0 0 1-8 .88q-7.7 0-12-4.19t-4.26-11.89z" fill="#fff"/><path d="M278.5 87.5A12.5 12.5 0 1 1 266 75a12.5 12.5 0 0 1 12.5 12.5" fill="#1c2442"/></svg>